<svg id="Camada_1" data-name="Camada 1" xmlns="http://www.w3.org/2000/svg" viewBox="0 0 338.75 338.75"><defs><style>.cls-1{fill:none;}.cls-2{fill:#fff;}</style></defs><g id="Guides"><rect class="cls-1" width="338.75" height="338.75"/></g><g id="Volvo_Iron_Mark" data-name="Volvo Iron Mark"><path class="cls-2" d="M158.37,177.93h27.41v-9.15h-3c0,3.5-2.56,6.08-6.47,6.08h-4.22V161.2h4.55v-3H158.37v3H163v13.66h-4.61v3.07Z"/><polygon class="cls-2" points="198.96 177.94 209.62 177.95 218.67 161.21 223.21 161.21 223.21 158.18 209.56 158.18 209.56 161.21 213.51 161.21 206.91 173.4 200.23 161.21 205.02 161.21 205.02 158.18 185.22 158.18 185.21 161.21 189.75 161.21 198.96 177.94"/><polygon class="cls-2" points="103.79 158.18 83.99 158.18 83.98 161.21 88.52 161.21 97.73 177.94 108.39 177.95 117.44 161.21 121.98 161.21 121.98 158.18 108.33 158.18 108.33 161.21 112.27 161.21 105.68 173.4 99 161.21 103.79 161.21 103.79 158.18"/><path class="cls-2" d="M124.63,168.08c0,5.82,4.69,10.45,14.09,10.45s14-4.63,14-10.45-4.92-10.32-14.1-10.32S124.63,162.34,124.63,168.08Zm18.93,0c-.06,3.59-1.55,7.33-5,7.27s-4.82-3.76-4.76-7.44,1.89-7.13,5-7.08S143.63,164.32,143.56,168.13Z"/><path class="cls-2" d="M225.83,168.08c0,5.82,4.69,10.45,14.09,10.45s14-4.63,14-10.45-4.92-10.32-14.09-10.32S225.83,162.34,225.83,168.08Zm14.21-7.2c3.13.06,4.79,3.44,4.72,7.25-.07,3.59-1.55,7.33-5,7.27S235,171.64,235,168,236.9,160.82,240,160.88Z"/><path class="cls-2" d="M262.3,105.22l-11.47,11.47A97,97,0,1,1,222.18,88l11.47-11.47a113,113,0,1,0,28.65,28.69Z"/><path class="cls-2" d="M226.18,60.9v3.17a120.71,120.71,0,0,1,19.26,13L229.35,93.17a96.81,96.81,0,0,1,16.32,16.3L261.74,93.4a124.51,124.51,0,0,1,13,19.18h3.09V60.9Z"/></g></svg>