<svg id="Calque_1" data-name="Calque 1" xmlns="http://www.w3.org/2000/svg" viewBox="0 0 378.18 496.52"><defs><style>.cls-1{fill:#fff;}</style></defs><path class="cls-1" d="M227.57-79.8c-6.45,12.07-93.54,175-131,245a6,6,0,0,0,.07,6.54c36.75,68.58,111.23,207.71,112,209,.77-1.3,75.25-140.42,112-209a6,6,0,0,0,.08-6.55q-31.55-58.66-63-117.41c-1.35-2.51-1.44-4.37,0-6.89,5.78-10.42,11.31-21,17.18-31.92.83,1.42,56.56,105.45,83.89,156.41a5.5,5.5,0,0,1,.07,6Q293.95,292.37,229.26,413.54c-1.15,2.16-2.32,3.14-4.94,3.09-10.68-.18-21.37-.12-32,0a3.82,3.82,0,0,1-4-2.37q-65-121.77-130.18-243.47a4.33,4.33,0,0,1-.05-4.69Q123.24,44.38,188.35-77.35c.55-1,1.84-2.33,2.8-2.34C203.07-79.86,215-79.8,227.57-79.8Z" transform="translate(-57.41 79.88)"/><path class="cls-1" d="M277-30.1C257.08,7,202.28,109.32,172.41,165.06a6,6,0,0,0-.06,6.54Q203.88,230.28,235.29,289c1.35,2.51,1.43,4.37,0,6.89-5.78,10.42-11.32,21-17.19,31.92-.78-1.32-56.5-105.36-83.88-156.43a5.5,5.5,0,0,1-.06-6Q199.05,44.38,263.74-76.79c1.16-2.17,2.34-3.13,4.94-3.09,10.69.18,21.37.13,32.06,0a3.84,3.84,0,0,1,4,2.38Q369.73,44.3,434.88,166a4.35,4.35,0,0,1,0,4.7Q369.76,292.4,304.65,414.12c-.55,1-1.84,2.32-2.81,2.33-11.92.16-23.84.11-36.33.11.82-1.6,87.94-164.66,131-245a6,6,0,0,0-.07-6.54c-36.75-68.58-111.23-207.7-112-209-.14.24-2.87,5.31-7.44,13.84" transform="translate(-57.41 79.88)"/></svg>